<mxfile host="app.diagrams.net" agent="Mozilla/5.0 (Macintosh; Intel Mac OS X 10_15_7) AppleWebKit/537.36 (KHTML, like Gecko) Chrome/138.0.0.0 Safari/537.36" version="28.0.7">
  <diagram name="Pagina-1" id="pX6mvPdmHWL1DqITEzlt">
    <mxGraphModel dx="2047" dy="681" grid="1" gridSize="10" guides="1" tooltips="1" connect="1" arrows="1" fold="1" page="1" pageScale="1" pageWidth="827" pageHeight="1169" math="0" shadow="0">
      <root>
        <mxCell id="0" />
        <mxCell id="1" parent="0" />
        <mxCell id="3aQUeb-euFE-y9l26gwd-1" value="Airlines" style="swimlane;fontStyle=0;childLayout=stackLayout;horizontal=1;startSize=30;horizontalStack=0;resizeParent=1;resizeParentMax=0;resizeLast=0;collapsible=1;marginBottom=0;whiteSpace=wrap;html=1;" parent="1" vertex="1">
          <mxGeometry x="-270" y="315" width="190" height="25" as="geometry" />
        </mxCell>
        <mxCell id="3aQUeb-euFE-y9l26gwd-9" value="Users" style="swimlane;fontStyle=0;childLayout=stackLayout;horizontal=1;startSize=30;horizontalStack=0;resizeParent=1;resizeParentMax=0;resizeLast=0;collapsible=1;marginBottom=0;whiteSpace=wrap;html=1;" parent="1" vertex="1">
          <mxGeometry x="1530" y="450" width="140" height="30" as="geometry" />
        </mxCell>
        <mxCell id="3aQUeb-euFE-y9l26gwd-15" value="Tickets" style="swimlane;fontStyle=0;childLayout=stackLayout;horizontal=1;startSize=30;horizontalStack=0;resizeParent=1;resizeParentMax=0;resizeLast=0;collapsible=1;marginBottom=0;whiteSpace=wrap;html=1;" parent="1" vertex="1">
          <mxGeometry x="810" y="312.5" width="170" height="30" as="geometry" />
        </mxCell>
        <mxCell id="3aQUeb-euFE-y9l26gwd-26" value="Flights" style="swimlane;fontStyle=0;childLayout=stackLayout;horizontal=1;startSize=30;horizontalStack=0;resizeParent=1;resizeParentMax=0;resizeLast=0;collapsible=1;marginBottom=0;whiteSpace=wrap;html=1;" parent="1" vertex="1">
          <mxGeometry x="600" y="315" width="150" height="25" as="geometry" />
        </mxCell>
        <mxCell id="3aQUeb-euFE-y9l26gwd-33" value="Trips" style="swimlane;fontStyle=0;childLayout=stackLayout;horizontal=1;startSize=30;horizontalStack=0;resizeParent=1;resizeParentMax=0;resizeLast=0;collapsible=1;marginBottom=0;whiteSpace=wrap;html=1;" parent="1" vertex="1">
          <mxGeometry x="1310" y="555" width="160" height="25" as="geometry" />
        </mxCell>
        <mxCell id="3aQUeb-euFE-y9l26gwd-37" value="Seats" style="swimlane;fontStyle=0;childLayout=stackLayout;horizontal=1;startSize=30;horizontalStack=0;resizeParent=1;resizeParentMax=0;resizeLast=0;collapsible=1;marginBottom=0;whiteSpace=wrap;html=1;" parent="1" vertex="1">
          <mxGeometry x="440" y="680" width="180" height="30" as="geometry" />
        </mxCell>
        <mxCell id="3aQUeb-euFE-y9l26gwd-41" value="Extras" style="swimlane;fontStyle=0;childLayout=stackLayout;horizontal=1;startSize=30;horizontalStack=0;resizeParent=1;resizeParentMax=0;resizeLast=0;collapsible=1;marginBottom=0;whiteSpace=wrap;html=1;" parent="1" vertex="1">
          <mxGeometry x="790" y="770" width="140" height="30" as="geometry" />
        </mxCell>
        <mxCell id="3aQUeb-euFE-y9l26gwd-45" value="Aircrafts" style="swimlane;fontStyle=0;childLayout=stackLayout;horizontal=1;startSize=30;horizontalStack=0;resizeParent=1;resizeParentMax=0;resizeLast=0;collapsible=1;marginBottom=0;whiteSpace=wrap;html=1;" parent="1" vertex="1">
          <mxGeometry x="30" y="620" width="210" height="30" as="geometry" />
        </mxCell>
        <mxCell id="3aQUeb-euFE-y9l26gwd-64" value="Bookings" style="swimlane;fontStyle=0;childLayout=stackLayout;horizontal=1;startSize=20;horizontalStack=0;resizeParent=1;resizeParentMax=0;resizeLast=0;collapsible=1;marginBottom=0;whiteSpace=wrap;html=1;" parent="1" vertex="1">
          <mxGeometry x="1011" y="540" width="169" height="20" as="geometry" />
        </mxCell>
        <mxCell id="3aQUeb-euFE-y9l26gwd-77" value="BlJWTs" style="swimlane;fontStyle=0;childLayout=stackLayout;horizontal=1;startSize=30;horizontalStack=0;resizeParent=1;resizeParentMax=0;resizeLast=0;collapsible=1;marginBottom=0;whiteSpace=wrap;html=1;" parent="1" vertex="1">
          <mxGeometry x="1690" y="660" width="170" height="30" as="geometry" />
        </mxCell>
        <mxCell id="Vh7ybCmycij3RCht1qAK-20" value="Airports" style="swimlane;fontStyle=0;childLayout=stackLayout;horizontal=1;startSize=80;horizontalStack=0;resizeParent=1;resizeParentMax=0;resizeLast=0;collapsible=1;marginBottom=0;whiteSpace=wrap;html=1;" parent="1" vertex="1">
          <mxGeometry x="315" y="30" width="140" height="60" as="geometry" />
        </mxCell>
        <mxCell id="kgwtjrE0FstHuXd1rFe7-4" value="Buy" style="text;html=1;align=center;verticalAlign=middle;resizable=0;points=[];autosize=1;strokeColor=none;fillColor=none;" parent="1" vertex="1">
          <mxGeometry x="-160" y="615" width="40" height="30" as="geometry" />
        </mxCell>
        <mxCell id="kgwtjrE0FstHuXd1rFe7-5" value="Have" style="text;html=1;align=center;verticalAlign=middle;resizable=0;points=[];autosize=1;strokeColor=none;fillColor=none;" parent="1" vertex="1">
          <mxGeometry x="380" y="630" width="50" height="30" as="geometry" />
        </mxCell>
        <mxCell id="kgwtjrE0FstHuXd1rFe7-6" value="UsedBy" style="text;html=1;align=center;verticalAlign=middle;resizable=0;points=[];autosize=1;strokeColor=none;fillColor=none;" parent="1" vertex="1">
          <mxGeometry x="320" y="340" width="70" height="30" as="geometry" />
        </mxCell>
        <mxCell id="kgwtjrE0FstHuXd1rFe7-11" value="Sell" style="text;html=1;align=center;verticalAlign=middle;resizable=0;points=[];autosize=1;strokeColor=none;fillColor=none;" parent="1" vertex="1">
          <mxGeometry x="280" y="290" width="40" height="30" as="geometry" />
        </mxCell>
        <mxCell id="kgwtjrE0FstHuXd1rFe7-14" value="RefersTo" style="text;html=1;align=center;verticalAlign=middle;resizable=0;points=[];autosize=1;strokeColor=none;fillColor=none;" parent="1" vertex="1">
          <mxGeometry x="750.15" y="343" width="70" height="30" as="geometry" />
        </mxCell>
        <mxCell id="kgwtjrE0FstHuXd1rFe7-17" value="Ticket" style="text;html=1;align=center;verticalAlign=middle;resizable=0;points=[];autosize=1;strokeColor=none;fillColor=none;" parent="1" vertex="1">
          <mxGeometry x="1020" y="420" width="60" height="30" as="geometry" />
        </mxCell>
        <mxCell id="kgwtjrE0FstHuXd1rFe7-18" value="FiguresInto" style="text;html=1;align=center;verticalAlign=middle;resizable=0;points=[];autosize=1;strokeColor=none;fillColor=none;" parent="1" vertex="1">
          <mxGeometry x="1201" y="525" width="80" height="30" as="geometry" />
        </mxCell>
        <mxCell id="kgwtjrE0FstHuXd1rFe7-19" value="PlannedBy" style="text;html=1;align=center;verticalAlign=middle;resizable=0;points=[];autosize=1;strokeColor=none;fillColor=none;" parent="1" vertex="1">
          <mxGeometry x="1390" y="460" width="80" height="30" as="geometry" />
        </mxCell>
        <mxCell id="MIx22FfydVjEeft8OLp_-5" value="" style="endArrow=classic;startArrow=classic;html=1;rounded=0;exitX=0.998;exitY=0.041;exitDx=0;exitDy=0;exitPerimeter=0;entryX=-0.027;entryY=-0.046;entryDx=0;entryDy=0;entryPerimeter=0;" parent="1" source="3aQUeb-euFE-y9l26gwd-1" edge="1">
          <mxGeometry width="50" height="50" relative="1" as="geometry">
            <mxPoint x="160" y="280" as="sourcePoint" />
            <mxPoint x="316.2199999999996" y="78.62" as="targetPoint" />
            <Array as="points">
              <mxPoint x="-70" y="90" />
            </Array>
          </mxGeometry>
        </mxCell>
        <mxCell id="MIx22FfydVjEeft8OLp_-6" value="" style="endArrow=classic;startArrow=classic;html=1;rounded=0;" parent="1" edge="1">
          <mxGeometry width="50" height="50" relative="1" as="geometry">
            <mxPoint x="-80" y="310" as="sourcePoint" />
            <mxPoint x="300" y="80" as="targetPoint" />
            <Array as="points">
              <mxPoint x="-70" y="90" />
            </Array>
          </mxGeometry>
        </mxCell>
        <mxCell id="MIx22FfydVjEeft8OLp_-7" value="" style="endArrow=classic;startArrow=classic;html=1;rounded=0;exitX=0.998;exitY=0.041;exitDx=0;exitDy=0;exitPerimeter=0;entryX=-0.007;entryY=0.075;entryDx=0;entryDy=0;entryPerimeter=0;" parent="1" edge="1">
          <mxGeometry width="50" height="50" relative="1" as="geometry">
            <mxPoint x="-120" y="315" as="sourcePoint" />
            <mxPoint x="319.02" y="43" as="targetPoint" />
            <Array as="points">
              <mxPoint x="-120" y="40" />
            </Array>
          </mxGeometry>
        </mxCell>
        <mxCell id="MIx22FfydVjEeft8OLp_-8" value="" style="endArrow=classic;startArrow=classic;html=1;rounded=0;" parent="1" edge="1">
          <mxGeometry width="50" height="50" relative="1" as="geometry">
            <mxPoint x="-120" y="300" as="sourcePoint" />
            <mxPoint x="310" y="40" as="targetPoint" />
            <Array as="points">
              <mxPoint x="-120" y="40" />
            </Array>
          </mxGeometry>
        </mxCell>
        <mxCell id="MIx22FfydVjEeft8OLp_-9" value="UsesRouteDestination" style="text;html=1;align=center;verticalAlign=middle;resizable=0;points=[];autosize=1;strokeColor=none;fillColor=none;" parent="1" vertex="1">
          <mxGeometry x="-150" y="10" width="140" height="30" as="geometry" />
        </mxCell>
        <mxCell id="MIx22FfydVjEeft8OLp_-10" value="" style="endArrow=classic;startArrow=classic;html=1;rounded=0;exitX=1;exitY=0.25;exitDx=0;exitDy=0;" parent="1" source="Vh7ybCmycij3RCht1qAK-20" edge="1">
          <mxGeometry width="50" height="50" relative="1" as="geometry">
            <mxPoint x="460.4200000000001" y="207.44000000000005" as="sourcePoint" />
            <mxPoint x="620" y="310" as="targetPoint" />
            <Array as="points">
              <mxPoint x="620" y="50" />
            </Array>
          </mxGeometry>
        </mxCell>
        <mxCell id="MIx22FfydVjEeft8OLp_-11" value="" style="endArrow=classic;startArrow=classic;html=1;rounded=0;entryX=0.147;entryY=-0.008;entryDx=0;entryDy=0;entryPerimeter=0;" parent="1" target="3aQUeb-euFE-y9l26gwd-26" edge="1">
          <mxGeometry width="50" height="50" relative="1" as="geometry">
            <mxPoint x="470" y="50" as="sourcePoint" />
            <mxPoint x="846" y="-34" as="targetPoint" />
            <Array as="points">
              <mxPoint x="622" y="50" />
            </Array>
          </mxGeometry>
        </mxCell>
        <mxCell id="MIx22FfydVjEeft8OLp_-12" value="" style="endArrow=classic;startArrow=classic;html=1;rounded=0;entryX=0;entryY=0;entryDx=0;entryDy=0;" parent="1" target="3aQUeb-euFE-y9l26gwd-26" edge="1">
          <mxGeometry width="50" height="50" relative="1" as="geometry">
            <mxPoint x="470" y="70" as="sourcePoint" />
            <mxPoint x="600" y="310" as="targetPoint" />
            <Array as="points">
              <mxPoint x="600" y="70" />
            </Array>
          </mxGeometry>
        </mxCell>
        <mxCell id="MIx22FfydVjEeft8OLp_-13" value="" style="endArrow=classic;startArrow=classic;html=1;rounded=0;exitX=0.998;exitY=0.617;exitDx=0;exitDy=0;exitPerimeter=0;" parent="1" edge="1" source="Vh7ybCmycij3RCht1qAK-20">
          <mxGeometry width="50" height="50" relative="1" as="geometry">
            <mxPoint x="470" y="240" as="sourcePoint" />
            <mxPoint x="600" y="310" as="targetPoint" />
            <Array as="points">
              <mxPoint x="600" y="70" />
            </Array>
          </mxGeometry>
        </mxCell>
        <mxCell id="MIx22FfydVjEeft8OLp_-14" value="UsesRouteDeparture" style="text;html=1;align=center;verticalAlign=middle;resizable=0;points=[];autosize=1;strokeColor=none;fillColor=none;" parent="1" vertex="1">
          <mxGeometry x="-80" y="90" width="140" height="30" as="geometry" />
        </mxCell>
        <mxCell id="MIx22FfydVjEeft8OLp_-15" value="UsesAirportDeparture" style="text;html=1;align=center;verticalAlign=middle;resizable=0;points=[];autosize=1;strokeColor=none;fillColor=none;" parent="1" vertex="1">
          <mxGeometry x="550" y="20" width="140" height="30" as="geometry" />
        </mxCell>
        <mxCell id="MIx22FfydVjEeft8OLp_-16" value="UsesAirportDestination" style="text;html=1;align=center;verticalAlign=middle;resizable=0;points=[];autosize=1;strokeColor=none;fillColor=none;" parent="1" vertex="1">
          <mxGeometry x="455" y="70" width="150" height="30" as="geometry" />
        </mxCell>
        <mxCell id="MIx22FfydVjEeft8OLp_-17" value="" style="endArrow=none;html=1;rounded=0;" parent="1" edge="1">
          <mxGeometry width="50" height="50" relative="1" as="geometry">
            <mxPoint x="-110" y="280" as="sourcePoint" />
            <mxPoint x="-130" y="280" as="targetPoint" />
          </mxGeometry>
        </mxCell>
        <mxCell id="MIx22FfydVjEeft8OLp_-18" value="" style="endArrow=none;html=1;rounded=0;" parent="1" edge="1">
          <mxGeometry width="50" height="50" relative="1" as="geometry">
            <mxPoint x="280" y="50" as="sourcePoint" />
            <mxPoint x="280" y="30" as="targetPoint" />
          </mxGeometry>
        </mxCell>
        <mxCell id="MIx22FfydVjEeft8OLp_-19" value="" style="endArrow=none;html=1;rounded=0;" parent="1" edge="1">
          <mxGeometry width="50" height="50" relative="1" as="geometry">
            <mxPoint x="-70" y="294.73" as="sourcePoint" />
            <mxPoint x="-90" y="294.73" as="targetPoint" />
          </mxGeometry>
        </mxCell>
        <mxCell id="MIx22FfydVjEeft8OLp_-20" value="" style="endArrow=none;html=1;rounded=0;" parent="1" edge="1">
          <mxGeometry width="50" height="50" relative="1" as="geometry">
            <mxPoint x="280" y="90" as="sourcePoint" />
            <mxPoint x="280" y="70" as="targetPoint" />
          </mxGeometry>
        </mxCell>
        <mxCell id="MIx22FfydVjEeft8OLp_-21" value="" style="endArrow=none;html=1;rounded=0;" parent="1" edge="1">
          <mxGeometry width="50" height="50" relative="1" as="geometry">
            <mxPoint x="590" y="290" as="sourcePoint" />
            <mxPoint x="610" y="290" as="targetPoint" />
          </mxGeometry>
        </mxCell>
        <mxCell id="MIx22FfydVjEeft8OLp_-22" value="" style="endArrow=none;html=1;rounded=0;" parent="1" edge="1">
          <mxGeometry width="50" height="50" relative="1" as="geometry">
            <mxPoint x="610" y="280" as="sourcePoint" />
            <mxPoint x="630" y="280" as="targetPoint" />
          </mxGeometry>
        </mxCell>
        <mxCell id="MIx22FfydVjEeft8OLp_-32" value="" style="endArrow=classic;startArrow=classic;html=1;rounded=0;entryX=0.01;entryY=0.836;entryDx=0;entryDy=0;entryPerimeter=0;exitX=1.003;exitY=0.395;exitDx=0;exitDy=0;exitPerimeter=0;" parent="1" edge="1">
          <mxGeometry width="50" height="50" relative="1" as="geometry">
            <mxPoint x="750.5999999999998" y="331.85" as="sourcePoint" />
            <mxPoint x="811.8499999999998" y="330.08000000000004" as="targetPoint" />
          </mxGeometry>
        </mxCell>
        <mxCell id="MIx22FfydVjEeft8OLp_-48" value="" style="endArrow=classic;startArrow=classic;html=1;rounded=0;exitX=0.999;exitY=0.376;exitDx=0;exitDy=0;exitPerimeter=0;" parent="1" edge="1">
          <mxGeometry width="50" height="50" relative="1" as="geometry">
            <mxPoint x="749.9999999999999" y="331.28" as="sourcePoint" />
            <mxPoint x="800.15" y="330" as="targetPoint" />
          </mxGeometry>
        </mxCell>
        <mxCell id="2JOPCuXI-Rg_1ET08u15-1" value="" style="endArrow=classic;html=1;rounded=0;entryX=1.003;entryY=0.123;entryDx=0;entryDy=0;entryPerimeter=0;exitX=0;exitY=0.154;exitDx=0;exitDy=0;exitPerimeter=0;" edge="1" parent="1" source="3aQUeb-euFE-y9l26gwd-26" target="3aQUeb-euFE-y9l26gwd-1">
          <mxGeometry width="50" height="50" relative="1" as="geometry">
            <mxPoint x="190" y="450" as="sourcePoint" />
            <mxPoint x="240" y="400" as="targetPoint" />
            <Array as="points">
              <mxPoint x="300" y="318" />
            </Array>
          </mxGeometry>
        </mxCell>
        <mxCell id="2JOPCuXI-Rg_1ET08u15-2" value="" style="endArrow=classic;html=1;rounded=0;entryX=0.86;entryY=1.177;entryDx=0;entryDy=0;entryPerimeter=0;exitX=-0.004;exitY=0.133;exitDx=0;exitDy=0;exitPerimeter=0;" edge="1" parent="1" source="3aQUeb-euFE-y9l26gwd-45" target="3aQUeb-euFE-y9l26gwd-1">
          <mxGeometry width="50" height="50" relative="1" as="geometry">
            <mxPoint x="120" y="610" as="sourcePoint" />
            <mxPoint x="20" y="480" as="targetPoint" />
            <Array as="points">
              <mxPoint x="-110" y="624" />
            </Array>
          </mxGeometry>
        </mxCell>
        <mxCell id="2JOPCuXI-Rg_1ET08u15-3" value="" style="endArrow=classic;html=1;rounded=0;exitX=0;exitY=0.75;exitDx=0;exitDy=0;entryX=0.893;entryY=0.011;entryDx=0;entryDy=0;entryPerimeter=0;" edge="1" parent="1" source="3aQUeb-euFE-y9l26gwd-26" target="3aQUeb-euFE-y9l26gwd-45">
          <mxGeometry width="50" height="50" relative="1" as="geometry">
            <mxPoint x="330" y="590" as="sourcePoint" />
            <mxPoint x="380" y="540" as="targetPoint" />
            <Array as="points">
              <mxPoint x="220" y="340" />
            </Array>
          </mxGeometry>
        </mxCell>
        <mxCell id="2JOPCuXI-Rg_1ET08u15-4" value="" style="endArrow=classic;html=1;rounded=0;exitX=0;exitY=0;exitDx=0;exitDy=0;entryX=1;entryY=0;entryDx=0;entryDy=0;" edge="1" parent="1">
          <mxGeometry width="50" height="50" relative="1" as="geometry">
            <mxPoint x="440" y="690" as="sourcePoint" />
            <mxPoint x="240" y="630" as="targetPoint" />
            <Array as="points">
              <mxPoint x="440" y="630" />
            </Array>
          </mxGeometry>
        </mxCell>
        <mxCell id="2JOPCuXI-Rg_1ET08u15-6" value="" style="endArrow=classic;html=1;rounded=0;entryX=1;entryY=0;entryDx=0;entryDy=0;" edge="1" parent="1" target="3aQUeb-euFE-y9l26gwd-37">
          <mxGeometry width="50" height="50" relative="1" as="geometry">
            <mxPoint x="1010" y="550" as="sourcePoint" />
            <mxPoint x="640" y="570" as="targetPoint" />
            <Array as="points">
              <mxPoint x="620" y="550" />
            </Array>
          </mxGeometry>
        </mxCell>
        <mxCell id="2JOPCuXI-Rg_1ET08u15-7" value="ChoosenIn" style="text;html=1;align=center;verticalAlign=middle;resizable=0;points=[];autosize=1;strokeColor=none;fillColor=none;" vertex="1" parent="1">
          <mxGeometry x="730" y="560" width="80" height="30" as="geometry" />
        </mxCell>
        <mxCell id="2JOPCuXI-Rg_1ET08u15-8" value="" style="endArrow=classic;html=1;rounded=0;entryX=1;entryY=0.5;entryDx=0;entryDy=0;exitX=0.424;exitY=-0.023;exitDx=0;exitDy=0;exitPerimeter=0;" edge="1" parent="1" source="3aQUeb-euFE-y9l26gwd-64" target="3aQUeb-euFE-y9l26gwd-15">
          <mxGeometry width="50" height="50" relative="1" as="geometry">
            <mxPoint x="950" y="510" as="sourcePoint" />
            <mxPoint x="977.4499999999998" y="360.6300000000001" as="targetPoint" />
            <Array as="points">
              <mxPoint x="1083" y="328" />
            </Array>
          </mxGeometry>
        </mxCell>
        <mxCell id="2JOPCuXI-Rg_1ET08u15-10" value="" style="endArrow=classic;html=1;rounded=0;exitX=0.406;exitY=1.2;exitDx=0;exitDy=0;exitPerimeter=0;entryX=1;entryY=0.25;entryDx=0;entryDy=0;" edge="1" parent="1" source="3aQUeb-euFE-y9l26gwd-64" target="3aQUeb-euFE-y9l26gwd-41">
          <mxGeometry width="50" height="50" relative="1" as="geometry">
            <mxPoint x="1090" y="650" as="sourcePoint" />
            <mxPoint x="930" y="772" as="targetPoint" />
            <Array as="points">
              <mxPoint x="1080" y="778" />
            </Array>
          </mxGeometry>
        </mxCell>
        <mxCell id="2JOPCuXI-Rg_1ET08u15-12" value="" style="endArrow=classic;html=1;rounded=0;exitX=1;exitY=0.5;exitDx=0;exitDy=0;entryX=0;entryY=0.25;entryDx=0;entryDy=0;" edge="1" parent="1" source="3aQUeb-euFE-y9l26gwd-64" target="3aQUeb-euFE-y9l26gwd-33">
          <mxGeometry width="50" height="50" relative="1" as="geometry">
            <mxPoint x="1190" y="580" as="sourcePoint" />
            <mxPoint x="1350" y="550" as="targetPoint" />
            <Array as="points">
              <mxPoint x="1240" y="550" />
              <mxPoint x="1240" y="560" />
            </Array>
          </mxGeometry>
        </mxCell>
        <mxCell id="2JOPCuXI-Rg_1ET08u15-13" value="" style="endArrow=classic;html=1;rounded=0;entryX=0;entryY=0.75;entryDx=0;entryDy=0;exitX=1;exitY=0;exitDx=0;exitDy=0;" edge="1" parent="1" source="3aQUeb-euFE-y9l26gwd-33" target="3aQUeb-euFE-y9l26gwd-9">
          <mxGeometry width="50" height="50" relative="1" as="geometry">
            <mxPoint x="1470" y="550" as="sourcePoint" />
            <mxPoint x="1510" y="475" as="targetPoint" />
            <Array as="points">
              <mxPoint x="1470" y="473" />
            </Array>
          </mxGeometry>
        </mxCell>
        <mxCell id="2JOPCuXI-Rg_1ET08u15-14" value="OptedFor" style="text;html=1;align=center;verticalAlign=middle;resizable=0;points=[];autosize=1;strokeColor=none;fillColor=none;" vertex="1" parent="1">
          <mxGeometry x="1000" y="750" width="70" height="30" as="geometry" />
        </mxCell>
      </root>
    </mxGraphModel>
  </diagram>
</mxfile>
